<svg width="986" height="249" viewBox="0 0 986 249" fill="none" xmlns="http://www.w3.org/2000/svg">
<path d="M930.814 164.17C930.814 148.669 943.027 136.926 958.293 136.926C973.559 136.926 985.772 148.669 985.772 164.17C985.772 179.671 973.559 191.414 958.293 191.414C943.027 191.414 930.814 179.671 930.814 164.17Z" fill="#00FFA6"/>
<path d="M939.464 66.2314V110.856C935.941 110.151 932.652 109.916 929.364 109.916C912.689 109.916 900.476 117.667 900.476 134.577V189.3H856.792V67.6406H900.476V83.6114C906.583 73.9819 919.03 65.7617 933.592 65.7617C935.471 65.7617 937.585 65.9966 939.464 66.2314Z" fill="#00FFA6"/>
<path d="M781.611 158.063C790.771 158.063 797.112 155.949 801.34 150.313H842.676C835.16 178.027 810.265 192.118 781.377 192.118C746.382 192.118 716.084 165.344 716.084 128.47C716.084 91.8316 746.382 64.8223 781.377 64.8223C824.357 64.8223 849.487 98.8775 844.085 141.153H757.42C761.178 152.192 770.573 158.063 781.611 158.063ZM781.377 99.3472C770.808 99.3472 761.648 104.984 757.655 115.318H802.749C801.575 108.037 794.059 99.3472 781.377 99.3472Z" fill="#00FFA6"/>
<path d="M661.286 0H704.971V189.3H661.286V0Z" fill="#00FFA6"/>
<path d="M555.052 67.6406V79.3838C561.629 72.3379 573.607 64.8223 590.517 64.8223C622.928 64.8223 650.172 91.8316 650.172 128.47C650.172 165.109 622.928 192.118 590.517 192.118C573.607 192.118 561.629 184.603 555.052 177.557V248.016H511.368V67.6406H555.052ZM606.722 128.47C606.722 113.439 595.684 101.696 580.418 101.696C565.152 101.696 554.113 113.439 554.113 128.47C554.113 143.502 565.152 155.245 580.418 155.245C595.684 155.245 606.722 143.502 606.722 128.47Z" fill="#00FFA6"/>
<path d="M379.655 64.8223C394.686 64.8223 406.899 70.6939 414.415 81.4976C424.044 72.103 437.197 64.8223 454.577 64.8223C479.942 64.8223 498.731 82.2022 498.731 109.916V189.3H455.046V122.364C455.046 112.265 449.175 103.81 438.606 103.81C428.037 103.81 422.4 112.265 422.4 122.364V189.3H378.716V122.364C378.716 112.265 372.844 103.81 362.275 103.81C351.706 103.81 346.07 112.265 346.07 122.364V189.3H302.385V67.6406H346.07V79.3838C352.881 71.6333 364.389 64.8223 379.655 64.8223Z" fill="#00FFA6"/>
<path d="M151.159 248.016L197.427 163.935L146.931 67.6406H194.139L220.678 120.25L246.983 67.6406H293.486L196.487 248.016H151.159Z" fill="#00FFA6"/>
<path d="M81.4977 50.0259H4.69726V12.2129H154.305L72.8077 151.487H151.017V189.3H-1.52588e-05L81.4977 50.0259Z" fill="#00FFA6"/>
</svg>
